<svg width="1635" height="1635" xmlns="http://www.w3.org/2000/svg" xmlns:xlink="http://www.w3.org/1999/xlink" xml:space="preserve" overflow="hidden"><defs><clipPath id="clip0"><rect x="420" y="970" width="1635" height="1635"/></clipPath></defs><g clip-path="url(#clip0)" transform="translate(-420 -970)"><path d="M420 1787.5C420 1336.01 786.007 970 1237.5 970 1688.99 970 2055 1336.01 2055 1787.5 2055 2238.99 1688.99 2605 1237.5 2605 786.007 2605 420 2238.99 420 1787.5Z" fill="#FFFFFF" fill-rule="evenodd"/><path d="M1244 1353 1103 1544.4 1242.8 1737 1385 1548.01 1244 1353Z" fill="#D21D50" fill-rule="evenodd"/><path d="M744 2045.56 1075.66 2047.28 1242.34 1816.86 1407.31 2049 1751 2045.56 1410.75 1586.44 1240.63 1809.98 1077.38 1583 744 2045.56Z" fill="#D21D50" fill-rule="evenodd"/><path d="M1134 2047 1243.5 1885 1353 2047Z" fill="#D21D50" fill-rule="evenodd"/></g></svg>